<mxfile host="app.diagrams.net" modified="2021-11-04T06:56:40.554Z" agent="5.0 (Macintosh; Intel Mac OS X 10_15_7) AppleWebKit/537.36 (KHTML, like Gecko) Chrome/94.0.4606.61 Safari/537.36" etag="440Vkb0Etw235vf9H8sv" version="15.6.8" type="github">
  <diagram id="FnPlJ2r88swGKfTP5Tri" name="Page-1">
    <mxGraphModel dx="1426" dy="801" grid="0" gridSize="10" guides="1" tooltips="1" connect="1" arrows="1" fold="1" page="1" pageScale="1" pageWidth="827" pageHeight="1169" math="0" shadow="0">
      <root>
        <mxCell id="0" />
        <mxCell id="1" parent="0" />
        <mxCell id="6tLSobg3qfzFOcM0TUpv-22" style="edgeStyle=orthogonalEdgeStyle;rounded=0;orthogonalLoop=1;jettySize=auto;html=1;" edge="1" parent="1" source="6tLSobg3qfzFOcM0TUpv-20" target="6tLSobg3qfzFOcM0TUpv-21">
          <mxGeometry relative="1" as="geometry" />
        </mxCell>
        <mxCell id="6tLSobg3qfzFOcM0TUpv-20" value="添加网关" style="rounded=0;whiteSpace=wrap;html=1;" vertex="1" parent="1">
          <mxGeometry x="97" y="163" width="120" height="60" as="geometry" />
        </mxCell>
        <mxCell id="6tLSobg3qfzFOcM0TUpv-24" style="edgeStyle=orthogonalEdgeStyle;rounded=0;orthogonalLoop=1;jettySize=auto;html=1;exitX=0.5;exitY=1;exitDx=0;exitDy=0;entryX=0.5;entryY=0;entryDx=0;entryDy=0;" edge="1" parent="1" source="6tLSobg3qfzFOcM0TUpv-21" target="6tLSobg3qfzFOcM0TUpv-23">
          <mxGeometry relative="1" as="geometry" />
        </mxCell>
        <mxCell id="6tLSobg3qfzFOcM0TUpv-21" value="添加子设备" style="rounded=0;whiteSpace=wrap;html=1;" vertex="1" parent="1">
          <mxGeometry x="97" y="263" width="120" height="60" as="geometry" />
        </mxCell>
        <mxCell id="6tLSobg3qfzFOcM0TUpv-23" value="把网关绑定子设备" style="rounded=0;whiteSpace=wrap;html=1;" vertex="1" parent="1">
          <mxGeometry x="97" y="363" width="120" height="60" as="geometry" />
        </mxCell>
        <mxCell id="6tLSobg3qfzFOcM0TUpv-25" value="扫描网关的码" style="rounded=0;whiteSpace=wrap;html=1;" vertex="1" parent="1">
          <mxGeometry x="97" y="463" width="120" height="60" as="geometry" />
        </mxCell>
        <mxCell id="6tLSobg3qfzFOcM0TUpv-26" value="完成信息录入" style="rounded=0;whiteSpace=wrap;html=1;" vertex="1" parent="1">
          <mxGeometry x="97" y="573" width="120" height="60" as="geometry" />
        </mxCell>
      </root>
    </mxGraphModel>
  </diagram>
</mxfile>
